<svg width="189" height="59" viewBox="0 0 189 59" fill="none" xmlns="http://www.w3.org/2000/svg">
<g id="Bharat">
<path d="M96.4438 57.4625V53.6409C94.9315 56.6481 92.222 58.089 87.559 58.089C81.3208 58.089 77.54 54.8312 77.54 49.4433V47.7517C77.54 43.053 80.8167 39.6072 89.3234 39.6072H96.4438V38.041C96.4438 34.0313 94.9945 32.2145 91.2138 32.2145C87.7481 32.2145 86.3618 33.7807 85.9837 36.0362H78.4852C78.6661 34.7644 78.9741 33.5769 79.4224 32.4926C80.4241 30.0695 82.126 28.1618 84.6735 26.9804C86.5456 26.1122 88.8745 25.6362 91.7179 25.6362C99.6575 25.6362 104.068 29.3326 104.068 37.2892V57.4625H96.4438ZM90.2056 52.7011C94.1754 52.7011 96.4438 50.759 96.4438 45.7469V43.9927H90.3316C86.5508 43.9927 85.1645 45.4337 85.1645 47.7517V48.7542C85.1645 51.3228 86.6768 52.7011 90.2056 52.7011Z" fill="#E46102"/>
<path d="M120.654 41.4241V57.4625H113.092V26.2627H120.654V31.588C122.733 27.5784 125.821 25.6362 129.79 25.6362H131.303V33.1542H129.349C124.308 33.1542 120.654 35.7229 120.654 41.4241Z" fill="#E46102"/>
<path d="M154.165 57.4625V53.6409C152.652 56.6481 149.943 58.089 145.28 58.089C139.041 58.089 135.261 54.8312 135.261 49.4433V47.7517C135.261 43.053 138.537 39.6072 147.044 39.6072H154.165V38.041C154.165 34.0313 152.715 32.2145 148.934 32.2145C145.469 32.2145 144.083 33.7807 143.704 36.0362H136.206C137.088 29.8338 140.995 25.6362 149.439 25.6362C157.378 25.6362 161.789 29.3326 161.789 37.2892V57.4625H154.165ZM147.926 52.7011C151.896 52.7011 154.165 50.759 154.165 45.7469V43.9927H148.052C144.272 43.9927 142.885 45.4337 142.885 47.7517V48.7542C142.885 51.3228 144.398 52.7011 147.926 52.7011Z" fill="#E46102"/>
<path d="M188.467 22.7439H50.441H42.8795H3.70177V17.523H42.8795H50.441H119.454H188.467V22.7439Z" fill="#E46102"/>
<path d="M79.4224 32.4926C80.4241 30.0695 82.126 28.1618 84.6735 26.9804V19.6101H79.4224V32.4926Z" fill="#E46102"/>
<path d="M137.143 32.4926C138.145 30.0695 139.847 28.1618 142.394 26.9804V20.9153H137.143V32.4926Z" fill="#E46102"/>
<path d="M20.3372 56.825C15.8632 56.825 12.9016 54.8829 11.2633 51.6877V56.1985H3.70177V15.6846C3.70177 9.79626 3.9383 9.14366 0 7.85338V0.00716228C10.5021 3.2702 11.2633 7.83844 11.2017 15.9356L11.2633 29.5722C12.9647 26.0637 16.1783 24.3722 20.3372 24.3722C27.1425 24.3722 32.3726 29.2589 32.3726 38.4058V42.7914C32.3726 51.9383 27.1425 56.825 20.3372 56.825ZM18.1317 50.2467C22.4796 50.2467 24.559 47.1769 24.559 42.4781V38.7817C24.559 34.0203 22.4796 30.9505 17.9427 30.9505C13.8468 30.9505 11.2633 33.5818 11.2633 38.7817V42.6034C11.2633 47.3022 13.9098 50.2467 18.1317 50.2467Z" fill="#E46102"/>
<path d="M39.2377 0V7.84621C43.176 9.13649 42.8795 9.7891 42.8795 15.6775H50.441C50.4841 7.73659 49.6308 3.22917 39.2377 0Z" fill="#E46102"/>
<path d="M50.441 56.8001V39.6966C50.441 34.246 53.4657 31.5521 57.1204 31.5521C61.0902 31.5521 62.7285 33.7448 62.7285 38.193V56.8001H70.3531V36.1256C70.3531 28.7955 66.5093 24.9738 60.019 24.9738C55.8601 24.9738 52.5205 26.8533 50.441 31.0509V22.7439H42.8795V56.8001H50.441Z" fill="#E46102"/>
<path d="M42.8795 17.523H50.441V15.6775H42.8795V17.523Z" fill="#E46102"/>
<path fill-rule="evenodd" clip-rule="evenodd" d="M188.467 51.4481V57.7758H182.922C175.171 57.7758 171.831 54.518 171.831 46.5614V32.653V26.2627V3.93774L179.456 0.0220918V26.2627V32.653V46.5614C179.456 49.5686 180.653 51.4481 184.497 51.4481H188.467Z" fill="#E46102"/>
</g>
</svg>
